<?xml version="1.0" encoding="utf-8"?>
<!-- Generator: Adobe Illustrator 18.0.0, SVG Export Plug-In . SVG Version: 6.00 Build 0)  -->
<!DOCTYPE svg PUBLIC "-//W3C//DTD SVG 1.1//EN" "http://www.w3.org/Graphics/SVG/1.1/DTD/svg11.dtd">
<svg version="1.1" id="Layer_4" xmlns="http://www.w3.org/2000/svg" xmlns:xlink="http://www.w3.org/1999/xlink" x="0px" y="0px"
	 viewBox="0 0 123.9 123.9" enable-background="new 0 0 123.9 123.9" xml:space="preserve">
<circle fill="#292929" cx="61.9" cy="61.9" r="61.9"/>
<path fill="#AD974F" d="M31.1,36.2c0,0,10.3,16.3,29.2,15l0-6c-0.2-8.3,10.2-19.4,25.8-7.5l9.5-3.4l-5.6,7.9l6.7-2.1L90,47.4
	c0,0-0.9,8.7-2.8,15.9c-1.3,4.6-3.4,8.3-4.6,9.8c-0.5,0.5-5.4,8.5-14.3,13.2c-5.2,2.8-7.8,3.5-10.5,3.8c0,0-21,1.8-30.6-4.8
	c0,0,12.7,0.3,20.5-5.5c0,0-13.2-4.2-13.2-11c0,0,4.4,2.2,7.7,1.2c0,0-13.2-5.5-13-15c0,0,6.7,2.7,6.7,1.2
	C35.8,56.2,25.5,49.5,31.1,36.2z"/>
</svg>
