<?xml version="1.0" encoding="utf-8"?>
<!-- Generator: Adobe Illustrator 18.0.0, SVG Export Plug-In . SVG Version: 6.00 Build 0)  -->
<!DOCTYPE svg PUBLIC "-//W3C//DTD SVG 1.1//EN" "http://www.w3.org/Graphics/SVG/1.1/DTD/svg11.dtd">
<svg version="1.1" xmlns="http://www.w3.org/2000/svg" xmlns:xlink="http://www.w3.org/1999/xlink" x="0px" y="0px"
	 viewBox="0 0 109.1 109.1" enable-background="new 0 0 109.1 109.1" xml:space="preserve">
<g id="Layer_1">
	<g>
		<circle fill="#FFFFFF" stroke="#FBBA14" stroke-width="5" stroke-miterlimit="10" cx="54.5" cy="54.5" r="52"/>
		<g>
			<g>
				<path fill="#FBBA14" d="M50.8,19.2c0,13.2,0,26.4,0,39.7c0,4.8,7.5,4.8,7.5,0c0-13.2,0-26.4,0-39.7
					C58.3,14.3,50.8,14.3,50.8,19.2L50.8,19.2z"/>
			</g>
		</g>
		<g>
			<g>
				<path fill="#FBBA14" d="M56.8,62.6c8.1,0,16.2,0,24.3,0c4.8,0,4.8-7.5,0-7.5c-8.1,0-16.2,0-24.3,0
					C51.9,55.1,51.9,62.6,56.8,62.6L56.8,62.6z"/>
			</g>
		</g>
	</g>
</g>
<g id="Layer_2">
</g>
</svg>
