<?xml version="1.0" encoding="utf-8"?>
<!-- Generator: Adobe Illustrator 18.0.0, SVG Export Plug-In . SVG Version: 6.00 Build 0)  -->
<!DOCTYPE svg PUBLIC "-//W3C//DTD SVG 1.1//EN" "http://www.w3.org/Graphics/SVG/1.1/DTD/svg11.dtd">
<svg version="1.1" xmlns="http://www.w3.org/2000/svg" xmlns:xlink="http://www.w3.org/1999/xlink" x="0px" y="0px"
	 viewBox="0 0 72 58.7" enable-background="new 0 0 72 58.7" xml:space="preserve">
<g id="Layer_1">
	<g>
		<path fill="#FBBA14" d="M61.3,29H11.6c-2.2,0-4-1.8-4-4v-5c0-2.2,1.8-4,4-4l49.7,0c2.2,0,4,1.8,4,4v5C65.3,27.2,63.5,29,61.3,29z"
			/>
		<rect x="18.3" y="0.5" fill="#F4F4F4" stroke="#FBBA14" stroke-miterlimit="10" width="36.3" height="35.5"/>
		<rect x="0" y="22.5" fill="#FBBA14" width="72" height="29.8"/>
		<rect x="8.6" y="33.3" fill="#FFFFFF" stroke="#FBBA14" stroke-miterlimit="10" width="53" height="25"/>
		<rect x="40.3" y="46.2" fill="#FBBA14" width="16" height="12"/>
		<rect x="12.8" y="46.2" fill="#FBBA14" width="23.2" height="1.1"/>
		<rect x="12.8" y="48.5" fill="#FBBA14" width="23.2" height="1.1"/>
		<rect x="12.8" y="50.5" fill="#FBBA14" width="23.2" height="1.1"/>
		<rect x="12.8" y="52.2" fill="#FBBA14" width="13.5" height="1.1"/>
	</g>
</g>
<g id="Layer_2">
</g>
</svg>
