<?xml version="1.0" encoding="utf-8"?>
<!-- Generator: Adobe Illustrator 18.0.0, SVG Export Plug-In . SVG Version: 6.00 Build 0)  -->
<!DOCTYPE svg PUBLIC "-//W3C//DTD SVG 1.1//EN" "http://www.w3.org/Graphics/SVG/1.1/DTD/svg11.dtd">
<svg version="1.1" xmlns="http://www.w3.org/2000/svg" xmlns:xlink="http://www.w3.org/1999/xlink" x="0px" y="0px"
	 viewBox="0 0 52.2 86.3" enable-background="new 0 0 52.2 86.3" xml:space="preserve">
<g id="Layer_1">
	<path fill="#FBBA14" d="M27.5,0c-0.5,0-1,0-1.4,0c-0.5,0-1,0-1.4,0C6.2,1-5.2,20.7,2.4,37.5L22.8,83c1,1.8,1.5,3.3,3.3,3.3
		c1.8,0,2.2-1.1,3.3-3.3l20.4-45.5C57.4,20.7,46,1,27.5,0z M26.1,40.7c-8.2,0-14.9-6.7-14.9-14.9c0-8.2,6.7-14.9,14.9-14.9
		c8.2,0,14.9,6.7,14.9,14.9C41,34.1,34.3,40.7,26.1,40.7z"/>
</g>
<g id="Layer_2">
</g>
</svg>
