<?xml version="1.0" encoding="utf-8"?>
<!-- Generator: Adobe Illustrator 18.0.0, SVG Export Plug-In . SVG Version: 6.00 Build 0)  -->
<!DOCTYPE svg PUBLIC "-//W3C//DTD SVG 1.1//EN" "http://www.w3.org/Graphics/SVG/1.1/DTD/svg11.dtd">
<svg version="1.1" xmlns="http://www.w3.org/2000/svg" xmlns:xlink="http://www.w3.org/1999/xlink" x="0px" y="0px"
	 viewBox="0 0 80.7 137.3" enable-background="new 0 0 80.7 137.3" xml:space="preserve">
<g id="Layer_1">
	<path fill="#FBBA14" d="M68.7,0H12C5.4,0,0,5.4,0,12v113.3c0,6.6,5.4,12,12,12h56.7c6.6,0,12-5.4,12-12V12C80.7,5.4,75.3,0,68.7,0z
		 M32.3,7h16c0.8,0,1.5,0.7,1.5,1.5S49.2,10,48.3,10h-16c-0.8,0-1.5-0.7-1.5-1.5S31.5,7,32.3,7z M40.3,132.8c-2.1,0-3.8-1.7-3.8-3.8
		c0-2.1,1.7-3.8,3.8-3.8c2.1,0,3.8,1.7,3.8,3.8C44.1,131.2,42.4,132.8,40.3,132.8z M75.5,118h-70V16.7h70V118z"/>
</g>
<g id="Layer_2">
</g>
</svg>
